<?xml version="1.0" standalone="no"?>
<!DOCTYPE svg PUBLIC "-//W3C//DTD SVG 20010904//EN"
 "http://www.w3.org/TR/2001/REC-SVG-20010904/DTD/svg10.dtd">
<svg version="1.0" xmlns="http://www.w3.org/2000/svg"
 width="1862.000000pt" height="468.000000pt" viewBox="0 0 1862.000000 468.000000"
 preserveAspectRatio="xMidYMid meet">

<g transform="translate(0.000000,468.000000) scale(0.100000,-0.100000)"
fill="#000000" stroke="none">
<path d="M4280 2225 l0 -1225 60 0 60 0 0 1225 0 1225 -60 0 -60 0 0 -1225z"/>
<path d="M1657 2812 l-597 -597 48 -48 48 -47 304 0 305 0 240 -240 c132 -132
244 -240 250 -240 12 0 295 281 295 293 0 4 -57 7 -127 7 -112 0 -129 -2 -148
-20 l-21 -20 -109 110 -110 110 356 0 355 0 44 45 45 45 -293 293 -292 292
-243 -243 -242 -242 -175 0 -175 0 418 417 417 418 467 -468 468 -467 -460
-460 c-253 -253 -464 -460 -470 -460 -5 0 -156 146 -335 325 l-326 326 -127
-3 -127 -3 457 -457 458 -458 598 598 597 597 -598 598 -597 597 -598 -598z
m708 -392 l110 -110 -220 0 -220 0 110 110 c60 61 110 110 110 110 0 0 50 -49
110 -110z"/>
<path d="M15432 2804 l-22 -15 0 -573 c0 -431 3 -575 12 -584 8 -8 48 -12 115
-12 l104 0 20 47 c11 26 22 49 24 52 2 2 25 -15 50 -37 25 -22 62 -48 83 -58
118 -56 300 -6 414 114 93 98 132 199 131 347 -1 193 -97 351 -259 427 -74 34
-177 52 -234 39 -48 -11 -116 -50 -149 -85 -14 -14 -28 -26 -33 -26 -4 0 -8
78 -8 174 0 213 4 206 -135 206 -66 0 -97 -4 -113 -16z m536 -510 c86 -35 131
-110 132 -215 0 -177 -150 -278 -306 -205 -60 28 -100 76 -120 143 -52 173
130 346 294 277z"/>
<path d="M8655 2706 c-168 -41 -267 -164 -252 -312 15 -149 122 -249 350 -330
44 -15 93 -37 110 -48 95 -64 27 -174 -99 -162 -62 5 -100 23 -177 83 -31 24
-63 43 -71 41 -8 -2 -49 -36 -90 -76 -88 -84 -88 -82 -5 -156 75 -67 196 -124
294 -138 141 -20 293 25 384 114 118 116 133 305 32 419 -49 56 -109 89 -264
145 -162 58 -197 85 -183 137 15 63 133 75 217 24 24 -15 55 -36 69 -48 15
-11 33 -17 42 -14 18 7 148 152 148 164 0 17 -75 81 -130 110 -109 58 -255 76
-375 47z"/>
<path d="M10251 2694 c-196 -53 -353 -224 -397 -434 -50 -237 74 -488 295
-598 370 -186 806 82 805 493 -1 257 -168 475 -414 540 -70 19 -219 18 -289
-1z m264 -273 c96 -44 158 -148 158 -266 0 -112 -48 -198 -142 -253 -40 -24
-56 -27 -131 -27 -75 0 -91 3 -131 27 -94 55 -142 141 -143 253 -1 214 200
351 389 266z"/>
<path d="M13150 2691 c-195 -62 -350 -229 -389 -419 -62 -298 125 -587 425
-658 124 -29 305 -6 424 54 l55 28 3 194 c2 174 1 196 -15 207 -20 15 -210 18
-233 3 -11 -7 -16 -34 -18 -114 l-4 -104 -30 -6 c-132 -26 -250 30 -308 148
-31 61 -32 71 -28 148 7 122 53 199 152 251 63 33 174 31 243 -6 29 -15 58
-27 66 -27 18 0 151 195 142 210 -13 22 -86 60 -159 85 -93 31 -239 34 -326 6z"/>
<path d="M5051 2686 c-8 -9 -10 -159 -9 -537 l3 -524 392 -3 c460 -3 417 -17
411 134 -2 71 -7 97 -18 104 -8 6 -124 10 -262 10 l-248 0 0 90 0 90 188 0
c133 0 192 4 200 12 8 8 12 46 12 104 0 75 -3 93 -16 98 -9 3 -99 6 -200 6
l-184 0 0 90 0 90 249 0 c218 0 250 2 255 16 11 30 7 209 -6 222 -19 19 -751
17 -767 -2z"/>
<path d="M6725 2690 c-6 -9 358 -977 391 -1042 14 -28 15 -28 123 -28 88 0
111 3 122 16 8 9 102 247 211 528 142 369 193 514 186 524 -12 14 -254 17
-276 4 -7 -5 -63 -161 -126 -348 l-113 -339 -107 325 c-60 179 -115 335 -122
348 -14 21 -20 22 -149 22 -80 0 -136 -4 -140 -10z"/>
<path d="M7911 2686 c-8 -9 -10 -159 -9 -537 l3 -524 135 0 135 0 3 524 c1
378 -1 528 -9 537 -9 10 -42 14 -129 14 -87 0 -120 -4 -129 -14z"/>
<path d="M9387 2693 c-4 -3 -7 -246 -7 -540 l0 -534 138 3 137 3 3 524 c1 378
-1 528 -9 537 -9 11 -43 14 -134 14 -67 0 -125 -3 -128 -7z"/>
<path d="M11152 2692 c-10 -7 -12 -121 -10 -538 l3 -529 130 0 130 0 5 322 5
322 195 -322 195 -322 143 -3 142 -3 0 535 c0 478 -2 534 -16 540 -20 8 -218
8 -238 0 -14 -5 -16 -41 -16 -302 0 -253 -2 -294 -14 -282 -8 8 -89 137 -181
285 -92 149 -176 278 -187 288 -17 14 -40 17 -147 17 -69 0 -132 -4 -139 -8z"/>
<path d="M16557 2693 c-4 -3 -7 -246 -7 -540 l0 -534 138 3 137 3 3 218 2 217
180 0 180 0 2 -217 3 -218 135 0 135 0 3 529 c2 417 0 531 -10 538 -21 13
-242 10 -256 -4 -8 -8 -12 -65 -12 -190 l0 -178 -180 0 -180 0 0 178 c0 125
-4 182 -12 190 -13 13 -249 18 -261 5z"/>
<path d="M14275 2551 c-68 -18 -126 -64 -158 -126 -17 -32 -16 -33 -37 45 -18
67 -22 70 -116 70 -74 0 -84 -2 -98 -22 -14 -19 -16 -78 -16 -441 0 -269 4
-425 10 -438 10 -17 22 -19 129 -19 84 0 122 4 129 13 7 8 12 113 14 288 l3
276 29 37 c68 89 181 85 226 -8 19 -39 20 -61 20 -308 0 -147 3 -273 6 -282 5
-13 26 -16 123 -16 78 0 121 4 129 12 9 9 12 84 12 278 0 256 1 267 23 310 51
100 181 105 234 7 16 -28 19 -69 23 -317 l5 -285 119 -3 c78 -2 123 1 132 9
11 9 14 64 14 293 0 307 -8 368 -57 458 -105 192 -372 232 -522 78 l-41 -42
-55 50 c-75 69 -197 105 -280 83z"/>
<path d="M6034 2147 c-3 -8 -4 -54 -2 -103 l3 -89 272 -3 273 -2 5 22 c3 13 5
59 3 103 l-3 80 -273 3 c-221 2 -273 0 -278 -11z"/>
</g>
</svg>
